<?xml version="1.0" encoding="UTF-8"?>
<svg width="1302px" height="883px" viewBox="0 0 1302 883" version="1.1" xmlns="http://www.w3.org/2000/svg" xmlns:xlink="http://www.w3.org/1999/xlink">
    <!-- Generator: Sketch 52.6 (67491) - http://www.bohemiancoding.com/sketch -->
    <title>pattern</title>
    <desc>Created with Sketch.</desc>
    <defs>
        <polygon id="path-1" points="0 0 1302 0 1302 883 0 883"></polygon>
    </defs>
    <g id="Page-1" stroke="none" stroke-width="1" fill="none" fill-rule="evenodd">
        <g id="Profile-Page" transform="translate(-69.000000, -75.000000)">
            <g id="pattern" transform="translate(69.000000, 75.000000)">
                <mask id="mask-2" fill="white">
                    <use xlink:href="#path-1"></use>
                </mask>
                <use id="background" fill="#FFFFFF" xlink:href="#path-1"></use>
                <g id="shapes" opacity="0.68285779" mask="url(#mask-2)" stroke="#363636" stroke-opacity="0.232450181">
                    <g transform="translate(-9.000000, -15.000000)">
                        <path d="M422.603242,227.841476 L473.730901,272.180202" id="Line" stroke-linecap="square"></path>
                        <polyline id="Path-2" points="524.712471 179.331254 502.909986 221.241521 520.618264 264.202032"></polyline>
                        <polyline id="Path-3" points="570.445911 181.358041 564.768759 253.052862 622.08396 263.571886"></polyline>
                        <path d="M608.455095,209.303747 C608.455095,209.303747 624.946576,190.333022 675.772811,238.242578" id="Path-4"></path>
                        <path d="M683.474876,179.148844 C683.474876,179.148844 761.383162,238.79718 683.195641,271.898295" id="Path-5"></path>
                        <polyline id="Path-6" points="780.703973 240.566013 750.814782 187.305739 808.847486 209.303747 793.223297 168.808546"></polyline>
                        <path d="M718.591856,282.456012 C718.591856,282.456012 738.423056,334.502055 699.703765,323.146521 C660.984475,311.790987 663.092604,277.315343 644.014042,309.743933" id="Path-7"></path>
                        <path d="M756.74528,274.816868 C756.74528,274.816868 784.415389,320.017899 825.461017,331.200235" id="Path-8"></path>
                        <polyline id="Path-9" points="819.219848 291.954272 879.09439 303.112655 882.731836 361.941064 927.059858 371.148204"></polyline>
                        <polyline id="Path-10" points="947.56233 336.790482 996.942462 273.972987 1011.2463 356.186832"></polyline>
                        <polyline id="Path-11" points="936.551983 388.009228 977.305432 372.122904 955.386445 430.413294 1008.19136 400.818521"></polyline>
                        <polyline id="Path-12" points="870.354904 252.594071 890.006728 280.679809 917.795188 253.119193 940.405789 293.192454"></polyline>
                        <polyline id="Path-13" points="921.236615 206.549159 963.732044 230.776632 1006.20713 212.701379"></polyline>
                        <path d="M1024.4184,227.174479 C1024.4184,227.174479 1034.84439,255.870096 1059.42813,241.522287" id="Path-14"></path>
                        <path d="M1036.18324,282.817148 C1036.18324,282.817148 1113.59778,343.119584 1035.87811,378.002428" id="Path-15"></path>
                        <path d="M1112.6972,377.501259 C1112.6972,377.501259 1138.9286,417.863798 1180.22203,433.267378" id="Path-16"></path>
                        <polyline id="Path-17" points="1131.319 352.510977 1103.05529 300.271468 1160.00619 322.081537 1144.48556 281.302586"></polyline>
                        <polyline id="Path-18" points="1158.13291 353.848657 1177.55728 383.102561 1205.61018 355.059201 1228.60912 393.780043"></polyline>
                        <path d="M789.894673,376.841632 C789.894673,376.841632 824.434691,367.450239 876.250266,387.839715" id="Path-19"></path>
                        <polyline id="Path-20" points="763.702103 404.851826 746.064096 350.4326 780.931429 352.560726 756.262629 332.884311"></polyline>
                        <polyline id="Path-21" points="633.882082 398.218706 675.45844 421.099287 717.156849 402.786346"></polyline>
                        <polyline id="Path-22" points="595.852556 380.27243 608.053811 330.22185 624.854115 382.032049 676.993306 347.895431"></polyline>
                        <path d="M556.227141,294.008697 L607.576708,293.739687" id="Path-23"></path>
                        <path d="M690.09144,374.543993 C690.09144,374.543993 697.723234,365.307373 724.607418,366.613729" id="Path-24"></path>
                        <polyline id="Path-25" points="440.672121 197.846874 477.246298 174.516714 451.397686 146.672348 478.773766 128.283864"></polyline>
                        <polyline id="Path-26" points="608.850832 96.3251206 636.911129 149.530118 582.092396 128.47733 598.606068 169.532661"></polyline>
                        <polyline id="Path-27" points="564.493223 31.8198655 583.832526 59.8890207 611.798513 33.4026018 634.067005 70.7010073"></polyline>
                        <polyline id="Path-28" points="644.513336 12.6722574 687.158553 35.3520022 729.746443 17.927163"></polyline>
                        <polyline id="Path-29" points="456.943543 10.3856734 516.128321 21.3137395 520.573883 79.6409798 563.244989 88.4372347"></polyline>
                        <polyline id="Path-30" points="439.412791 77.2733243 429.127344 135.74244 370.386383 140.73939 362.294129 183.978124"></polyline>
                        <polyline id="Path-31" points="337.889769 249.231448 304.339092 290.77505 294.989358 239.06619"></polyline>
                        <path d="M349.225582,282.750817 L349.225582,336.301159" id="Path-32"></path>
                        <path d="M339.591066,117.847754 L297.132622,166.844405" id="Path-33"></path>
                        <path d="M357.904044,100.970148 C357.904044,100.970148 437.302814,70.9681746 357.713573,8.69975523" id="Path-34"></path>
                        <path d="M432.705615,6.64717291 C432.705615,6.64717291 438.009222,13.282136 436.241353,23.322101 C434.473484,33.362066 434.591835,46.6338348 455.808112,45.3716993 C477.02439,44.1095639 478.666511,57.3868603 478.200503,64.8896566 C477.734496,72.392453 475.519112,80.0168566 481.122295,84.4776302" id="Path-35"></path>
                        <path d="M517.152797,108.327384 C517.152797,108.327384 544.876534,105.847334 542.361574,136.344948" id="Path-36"></path>
                        <polyline id="Path-37" points="332.406787 44.7820886 307.081508 81.0339351 259.824298 83.396063"></polyline>
                        <polyline id="Path-38" points="304.477785 16.0754168 254.35426 48.351076 236.668173 0.725270267 225.265788 46.7922927"></polyline>
                        <path d="M176.501451,15.454483 L203.984787,60.3054333" id="Path-39"></path>
                        <polyline id="Path-40" points="196.40662 108.53559 215.812496 136.886653 244.209355 110.188343 267.591087 148.231132"></polyline>
                        <path d="M264.517658,182.776792 C264.517658,182.776792 269.464362,213.585795 298.114566,196.205176 C326.764769,178.824558 329.573758,199.85892 329.573758,199.85892" id="Path-41"></path>
                        <path d="M404.600936,196.652912 C404.600936,196.652912 379.495716,203.328411 392.048326,225.287725 C404.600936,247.247039 400.996776,250.088226 387.66009,254.689032" id="Path-42"></path>
                        <polyline id="Path-43" points="158.044233 8.98534792 126.474086 34.211474 104.196348 6.89775747 77.6228354 24.5289605 56.1199265 8.15805038"></polyline>
                        <path d="M7.08929987,28.8920798 C7.08929987,28.8920798 43.5543722,27.5488729 44.747129,59.8447999 C45.9398858,92.140727 59.0343215,93.1191123 82.1885976,94.9100549" id="Path-44"></path>
                        <path d="M130.228034,71.8562758 C130.228034,71.8562758 124.91703,49.2668152 159.334999,47.1865948" id="Path-45"></path>
                        <polyline id="Path-46" points="169.326418 90.8749065 98.2658499 98.1492287 99.005544 157.075292"></polyline>
                        <polyline id="Path-47" points="145.312247 148.511197 204.075399 159.282648 209.125661 218.234507 252.832339 226.857563"></polyline>
                        <path d="M254.217417,249.830271 L267.644715,286.701209" id="Path-48"></path>
                        <path d="M196.388128,261.661179 C196.388128,261.661179 222.867329,256.581314 222.349543,289.802193" id="Path-49"></path>
                        <path d="M123.509762,272.130454 C123.509762,272.130454 128.863298,241.126143 178.513419,204.627397" id="Path-50"></path>
                        <path d="M57.5271946,198.792093 L129.543817,193.343722" id="Path-51"></path>
                        <polyline id="Path-52" points="32.9582535 111.347296 60.9260893 162.57894 5.66353939 143.095991 19.464383 181.512814"></polyline>
                        <polyline id="Path-53" points="52.0627041 230.800585 14.0868065 261.405066 61.057385 284.965542"></polyline>
                        <path d="M105.15795,227.843319 C105.15795,227.843319 60.9149938,240.930834 89.2804152,280.952504" id="Path-54"></path>
                        <polyline id="Path-55" points="151.087409 267.076384 140.108499 325.790557 81.5820484 331.990682 74.0944943 375.430252"></polyline>
                        <path d="M27.5529385,308.157511 C27.5529385,308.157511 -4.35931632,313.060493 0.986823138,351.370449" id="Path-56"></path>
                        <polyline id="Path-57" points="51.2989699 347.342671 28.908428 372.467458 36.8989741 408.382121 19.2110377 426.276806 27.1645991 463.403856"></polyline>
                        <polyline id="Path-58" points="197.926692 317.430982 171.606525 336.681772 197.360826 364.835684 161.110265 388.311403"></polyline>
                        <path d="M117.111408,386.194332 C117.111408,386.194332 91.0704751,391.948564 105.093227,417.627954 C119.115979,443.307343 100.375827,445.48706 100.375827,445.48706" id="Path-59"></path>
                        <path d="M134.899203,418.755584 L184.148039,460.704544" id="Path-60"></path>
                        <polyline id="Path-61" points="236.165181 367.728462 214.893426 409.537389 232.011798 451.230237"></polyline>
                        <polyline id="Path-62" points="262.513086 323.581359 310.203017 336.169548 261.904688 353.651506 295.701314 403.812638"></polyline>
                        <path d="M332.726704,370.378025 C332.726704,370.378025 353.2939,378.606779 341.843435,391.456608 C330.392969,404.306437 306.003404,446.106612 328.207173,449.885188 C350.410942,453.663763 359.261383,444.855071 359.261383,444.855071" id="Path-63"></path>
                        <polyline id="Path-64" points="226.49368 479.767396 260.212638 487.13016 261.298139 447.388555 304.792155 459.044422"></polyline>
                        <polyline id="Path-65" points="76.7056147 440.316911 47.2546922 477.412638 55.4523526 521.474984"></polyline>
                        <polyline id="Path-66" points="108.251721 506.707078 145.033012 466.106852 151.379588 512.763486 180.547578 493.287907"></polyline>
                        <path d="M214.839799,511.254451 C214.839799,511.254451 161.489358,581.805058 258.165534,593.971307" id="Path-67"></path>
                        <polyline id="Path-68" points="157.108519 580.723491 105.851413 551.887842 90.1846913 593.379853 76.9959446 550.378807"></polyline>
                        <polyline id="Path-69" points="15.8398816 522.469952 9.9038361 592.921063 66.3794844 602.957343"></polyline>
                        <polyline id="Path-70" points="26.0680025 625.865562 69.2661408 653.521989 19.8046423 663.687247 62.8548418 705.503544 10.0314333 704.727838"></polyline>
                        <polyline id="Path-71" points="106.692815 706.314259 100.823342 640.264961 158.060876 633.539714"></polyline>
                        <polyline id="Path-72" points="170.293568 603.430874 210.081716 600.445969 190.662895 638.16263 233.226746 624.713978 217.656184 674.851157"></polyline>
                        <path d="M153.665243,667.504976 C153.665243,667.504976 229.862987,699.6535 153.979613,750.293691" id="Path-73"></path>
                        <polyline id="Path-74" points="76.259949 739.756242 61.3495642 776.770897 119.45069 757.348752 92.4703462 805.982423"></polyline>
                        <polyline id="Path-75" points="21.1915688 759.285254 9.44707497 803.113599 49.1705 804.541562 40.6806604 838.051719"></polyline>
                        <path d="M3.73293767,883.648895 C3.73293767,883.648895 59.8294927,873.481795 64.9648193,921.081805" id="Path-76"></path>
                        <polyline id="Path-77" points="68.5079543 825.48564 81.9814832 870.502419 124.158844 887.859084"></polyline>
                        <path d="M150.155394,775.193688 L153.50436,840.345673" id="Path-78"></path>
                        <polyline id="Path-79" points="171.78775 865.62339 140.994282 879.057302 160.906849 910.594105 120.173741 926.165355"></polyline>
                        <polyline id="Path-80" points="190.925487 866.146669 237.246984 847.185157 210.490397 891.634435 272.890995 919.456691"></polyline>
                        <polyline id="Path-81" points="215.205947 816.892064 199.796269 776.271571 257.296393 800.056835 228.890289 745.038785"></polyline>
                        <path d="M274.512775,619.816524 C274.512775,619.816524 234.341835,678.420144 249.906849,710.178052" id="Path-82"></path>
                        <polyline id="Path-83" points="296.537168 637.637508 313.448426 681.985447 293.090193 721.07848"></polyline>
                        <path d="M329.440613,743.181512 L378.565551,705.111085" id="Path-84"></path>
                        <polyline id="Path-85" points="365.445226 674.558194 333.775221 648.20628 360.896107 622.854862 336.6064 601.018997"></polyline>
                        <path d="M393.699693,672.638274 C393.699693,672.638274 419.300507,669.017696 418.653275,699.34027" id="Path-86"></path>
                        <polyline id="Path-87" points="371.619823 753.884789 414.318667 761.332309 370.611989 786.226779 405.235223 805.847918 368.940281 822.60576"></polyline>
                        <path d="M353.436291,807.028982 C353.436291,807.028982 318.073363,826.29267 309.222923,789.720223 C300.372482,753.147775 298.796934,756.930497 276.391598,760.027795" id="Path-88"></path>
                        <path d="M291.512796,819.976465 C291.512796,819.976465 367.721634,876.79467 292.298721,911.655404" id="Path-89"></path>
                        <path d="M353.613818,902.203207 C353.613818,902.203207 359.893821,872.722671 408.506521,834.195296" id="Path-90"></path>
                        <path d="M463.336349,846.571593 C463.336349,846.571593 435.152153,843.179489 435.104073,870.091534" id="Path-91"></path>
                        <path d="M395.066278,898.936395 C395.066278,898.936395 404.046165,896.069413 414.124498,908.219079 C424.20283,920.368745 436.657431,906.770848 441.837139,898.960348 C447.016847,891.149849 455.815509,884.107686 471.463739,896.163382" id="Path-92"></path>
                        <polyline id="Path-93" points="499.87909 856.281745 536.257248 880.726637 541.242786 928.210568"></polyline>
                        <polyline id="Path-94" points="513.907389 800.71462 455.552918 806.422789 445.563348 754.076412"></polyline>
                        <path d="M520.444436,751.592677 L569.647042,794.437108" id="Path-95"></path>
                        <polyline id="Path-96" points="527.428998 816.363257 569.667383 838.764779 611.315862 821.833739"></polyline>
                        <polyline id="Path-97" points="573.016349 860.246877 576.81098 904.731163 614.209916 892.432252 618.02119 926.403042"></polyline>
                        <polyline id="Path-98" points="457.165451 698.741446 464.630814 656.980425 524.647748 658.611067 536.236906 600.749987"></polyline>
                        <polyline id="Path-99" points="370.118244 548.797913 373.87589 606.178091 420.741062 593.575162 429.963199 654.80992"></polyline>
                        <polyline id="Path-100" points="270.562808 564.748726 284.332215 508.256649 355.337305 520.319715"></polyline>
                        <path d="M326.012131,557.761839 C326.012131,557.761839 298.421539,559.692814 301.809338,584.659142" id="Path-101"></path>
                        <path d="M368.294897,482.593842 C368.294897,482.593842 412.410256,529.589501 412.369573,554.717973" id="Path-102"></path>
                        <path d="M443.549531,460.125989 L434.466087,475.997572 C434.466087,475.997572 423.899556,501.824364 433.724543,505.046955 C443.549531,508.269546 448.819852,503.241272 462.115854,489.619422 C475.411856,475.997572 500.927606,506.918969 472.238568,528.471084" id="Path-103"></path>
                        <polyline id="Path-104" points="438.282909 581.816113 473.63659 594.71569 498.320184 540.478874"></polyline>
                        <path d="M508.215443,607.642905 C508.215443,607.642905 517.879547,574.488358 563.206155,537.547404" id="Path-105"></path>
                        <path d="M571.148621,592.633627 C571.148621,592.633627 597.699942,588.342367 597.544607,621.156046" id="Path-106"></path>
                        <polyline id="Path-107" points="531.010967 482.772568 589.901717 493.61035 593.95709 552.86807 638.6753 560.092643"></polyline>
                        <polyline id="Path-108" points="576.847964 656.383444 549.264769 675.479461 576.433736 703.806571 537.483291 727.98798"></polyline>
                        <polyline id="Path-109" points="619.023475 662.777035 596.949153 706.550103 614.687018 747.968414"></polyline>
                        <path d="M493.484434,699.496885 C493.484434,699.496885 470.019486,705.225322 480.251305,727.461016 C490.483125,749.69671 494.588427,751.014121 476.212575,758.824621" id="Path-110"></path>
                        <polyline id="Path-111" points="681.496194 737.278034 647.836412 687.710198 695.313681 669.21669 648.513232 657.780084"></polyline>
                        <polyline id="Path-112" points="678.419066 619.604633 617.253757 604.027855 718.421726 567.162444"></polyline>
                        <path d="M733.629838,617.063779 L733.629838,671.355417" id="Path-113"></path>
                        <path d="M634.886216,750.586654 L652.627781,811.053075" id="Path-114"></path>
                        <polyline id="Path-115" points="705.909799 808.093967 728.453828 845.497396 756.819249 818.528234 775.914454 846.184661"></polyline>
                        <path d="M701.969079,895.197895 L762.261549,915.318361" id="Path-116"></path>
                        <polyline id="Path-117" points="749.361283 866.270119 791.202082 889.742153 832.841315 871.95802"></polyline>
                        <path d="M692.502843,822.953999 C692.502843,822.953999 689.085456,831.201179 679.996464,835.177366 C670.907472,839.153554 662.563722,852.629844 674.716897,865.870289 C686.870072,879.110735 680.560481,887.910675 671.665659,894.254518 C662.770837,900.598361 660.342791,898.355997 656.925404,907.137512" id="Path-118"></path>
                        <path d="M717.905789,703.395686 C717.905789,703.395686 738.933445,713.286406 726.887525,726.989327 C714.841606,740.692249 670.552419,799.518816 746.395109,778.817952" id="Path-119"></path>
                        <polyline id="Path-120" points="765.442234 681.495333 774.124394 625.327542 846.490522 630.201043"></polyline>
                        <path d="M820.144465,663.689089 C820.144465,663.689089 836.942919,688.673843 792.444769,730.510409" id="Path-121"></path>
                        <path d="M765.087181,732.185272 C765.087181,732.185272 799.540285,808.932319 859.668173,730.880758" id="Path-122"></path>
                        <path d="M806.726413,799.264546 C806.726413,799.264546 824.891452,777.22416 844.693065,799.389838" id="Path-123"></path>
                        <path d="M897.982481,807.097156 L825.57567,845.840108" id="Path-124"></path>
                        <polyline id="Path-125" points="880.695828 860.195286 908.275325 912.226589 850.936083 892.85235 866.88204 932.236503"></polyline>
                        <path d="M702.861824,68.2206923 C702.861824,68.2206923 623.760227,101.208982 703.999555,161.558128" id="Path-126"></path>
                        <polyline id="Path-127" points="705.376893 124.743509 735.09969 138.762557 744.874717 99.6823479 785.881908 120.277292"></polyline>
                        <polyline id="Path-128" points="754.921952 59.686158 812.76853 68.1118791 807.772622 140.482457"></polyline>
                        <path d="M867.816422,116.644227 L825.353653,163.666182" id="Path-129"></path>
                        <path d="M810.612058,21.7135693 L758.912871,21.7135693" id="Path-130"></path>
                        <polyline id="Path-131" points="849.474188 10.3157849 843.428569 81.5543797 901.385987 91.1770469"></polyline>
                        <polyline id="Path-132" points="878.554771 186.752463 890.491159 136.082827 906.440574 185.951792 958.58872 152.810839"></polyline>
                        <polyline id="Path-133" points="922.301969 79.0614187 907.674473 39.6856269 965.480302 62.8238783 935.524416 7.06925131"></polyline>
                        <path d="M975.788334,86.1245376 L1038.3961,91.2144007" id="Path-134"></path>
                        <path d="M946.83,86.8878547 C946.83,86.8878547 949.067971,135.923667 1015.65617,130.349829" id="Path-135"></path>
                        <path d="M860.103327,213.609855 C860.103327,213.609855 828.924953,209.276813 831.446541,237.061554" id="Path-136"></path>
                        <path d="M1003.68718,156.997715 C1003.68718,156.997715 1017.73766,156.237646 1025.20462,163.835087 C1032.67159,171.432527 1046.31131,166.451478 1051.74895,151.49696 C1057.18658,136.542442 1065.96569,134.525336 1078.54103,141.565717 C1091.11637,148.606099 1092.08459,149.057593 1097.32988,147.574809" id="Path-137"></path>
                        <path d="M1140.48213,152.823832 L1186.34505,128.233654" id="Path-138"></path>
                        <polyline id="Path-139" points="1068.56226 102.146075 1119.28416 68.8167293 1136.01597 116.796891 1147.63777 66.6242228"></polyline>
                        <polyline id="Path-140" points="1081.19954 55.6259608 1038.39447 33.4020658 998.032755 50.9664786"></polyline>
                        <polyline id="Path-141" points="1122.07144 186.219765 1178.75258 194.096548 1175.06229 265.963661"></polyline>
                        <path d="M1204.56015,212.275753 L1257.23447,212.275753" id="Path-142"></path>
                        <path d="M1069.36584,212.084845 C1069.36584,212.084845 1117.30536,253.869146 1137.10969,239.941046" id="Path-143"></path>
                        <path d="M1229.44189,274.795402 C1229.44189,274.795402 1199.6653,271.225677 1200.97418,298.302319" id="Path-144"></path>
                        <polyline id="Path-145" points="1087.51899 1.28428244 1110.17743 39.5394598 1138.3061 11.5679497 1157.64263 40.3807327"></polyline>
                        <path d="M1220.93988,10.2784311 C1220.93988,10.2784311 1212.06298,21.273445 1198.22928,22.1325827 C1184.39559,22.9917204 1191.03126,42.776249 1191.03126,42.776249 C1191.03126,42.776249 1204.21785,67.7724466 1183.20733,72.4903956 C1162.19681,77.2083447 1164.97105,85.0234122 1164.97105,85.0234122" id="Path-146"></path>
                        <polyline id="Path-147" points="1244.95936 86.2203583 1229.2903 46.3151168 1287.42212 69.0246114 1257.60153 14.210326"></polyline>
                        <path d="M1295.50686,6.56741095 C1295.50686,6.56741095 1372.12924,63.3744411 1296.60384,100.825699" id="Path-148"></path>
                        <polyline id="Path-149" points="1220.47044 100.039645 1215.42075 171.177547 1271.23636 181.404372"></polyline>
                        <path d="M1257.37333,127.400502 C1257.37333,127.400502 1270.23392,106.805558 1324.17016,154.611943" id="Path-150"></path>
                        <polyline id="Path-151" points="1322.77815 212.447015 1301.82631 268.493976 1259.80038 240.421773 1278.74082 284.783487"></polyline>
                        <polyline id="Path-152" points="1234.04497 321.093018 1277.59331 345.092031 1319.8018 327.834569"></polyline>
                        <polyline id="Path-153" points="1273.34882 381.815702 1300.55981 434.713574 1244.66433 414.630215 1259.58359 454.135933"></polyline>
                        <polyline id="Path-155" points="1325.84579 436.452963 1315.5508 495.452499 1255.59828 500.487144 1248.37907 544.566268"></polyline>
                        <polyline id="Path-156" points="1132.29145 439.220393 1060.65845 433.849564 1051.69679 492.011076"></polyline>
                        <path d="M1022.40643,426.021504 L1022.40643,478.055515" id="Path-157"></path>
                        <polyline id="Path-158" points="1137.50741 475.981418 1177.12911 459.648057 1155.09985 517.757598 1210.16241 488.868484"></polyline>
                        <polyline id="Path-159" points="1221.63262 509.232808 1214.52262 579.686973 1271.68624 588.715227"></polyline>
                        <path d="M1107.54337,478.445146 C1107.54337,478.445146 1126.13337,491.286737 1079.50272,545.079477" id="Path-160"></path>
                        <polyline id="Path-161" points="937.874856 467.73597 984.060514 479.365998 935.596136 496.215816 969.556897 549.238743"></polyline>
                        <polyline id="Path-162" points="919.563592 511.694912 897.379481 551.946082 914.135738 594.959811"></polyline>
                        <polyline id="Path-163" points="833.774161 529.727059 869.920734 509.020054 845.055295 481.230441 873.027488 461.726878"></polyline>
                        <path d="M878.954117,421.871983 C878.954117,421.871983 904.782878,415.858019 904.253132,449.237712" id="Path-164"></path>
                        <polyline id="Path-165" points="834.227297 406.399384 809.578647 460.549421 751.838018 453.012071 734.415096 491.082103"></polyline>
                        <path d="M730.287971,429.365483 L688.343538,475.16613" id="Path-166"></path>
                        <path d="M514.254498,381.992727 C514.254498,381.992727 496.921225,426.710114 513.9774,468.853336" id="Path-167"></path>
                        <path d="M549.139461,419.828892 C549.139461,419.828892 543.299221,394.590706 575.884274,396.578579" id="Path-168"></path>
                        <polyline id="Path-169" points="583.696797 436.428602 602.736666 465.819557 630.255722 439.017383 652.81147 474.237157"></polyline>
                        <path d="M647.714503,503.17337 C647.714503,503.17337 657.601999,507.066287 660.98422,517.489625 C664.366442,527.912963 675.965423,536.900616 689.050952,527.195121 C702.13648,517.489625 712.475483,519.344323 717.665358,532.484745 C722.855234,545.625167 725.160035,546.737661 730.643308,548.355244" id="Path-170"></path>
                        <polyline id="Path-171" points="800.625133 502.172938 769.660286 537.850702 776.913725 581.64886"></polyline>
                        <path d="M808.349637,561.552509 L857.374731,602.448438" id="Path-172"></path>
                        <polyline id="Path-173" points="881.783773 603.18577 856.188101 657.378033 900.468304 639.751905 878.300493 696.748953 931.834128 667.023437"></polyline>
                        <polyline id="Path-174" points="930.38507 705.099966 982.016511 672.121421 998.743429 721.231941 1010.58365 671.450676"></polyline>
                        <path d="M963.666127,587.911308 L971.314022,602.958399 C971.314022,602.958399 976.28874,617.498777 967.832372,620.48221 C959.376004,623.465643 944.913136,625.853039 932.68498,606.882174" id="Path-175"></path>
                        <polyline id="Path-176" points="1064.75135 621.068502 1080.12864 650.599128 1110.61101 626.536776 1132.36317 663.715189"></polyline>
                        <path d="M1002.53315,512.006735 C1002.53315,512.006735 1006.08489,521.263985 1003.15743,526.452916 C1000.22998,531.641848 990.441909,550.378846 1012.18918,556.992095 C1033.93646,563.605344 1034.33581,569.507247 1030.68953,581.392256 C1027.04325,593.277265 1025.30568,590.979193 1026.74822,601.701362" id="Path-177"></path>
                        <path d="M1019.34319,628.727658 C1019.34319,628.727658 1077.91349,675.468648 1039.70824,720.637529" id="Path-178"></path>
                        <path d="M1007.07266,746.299599 L1039.18827,787.132189" id="Path-179"></path>
                        <polyline id="Path-180" points="1081.47501 706.399229 1075.16696 778.730829 1131.72422 788.613349"></polyline>
                        <polyline id="Path-181" points="934.238357 842.121875 953.208136 786.963285 1023.18018 806.012106"></polyline>
                        <path d="M1064.89642,829.778876 L1117.24179,829.158477" id="Path-182"></path>
                        <polyline id="Path-183" points="939.242415 886.412129 984.52506 872.971253 1002.14358 830.920603"></polyline>
                        <path d="M875.399117,762.782375 C875.399117,762.782375 887.105678,762.176593 894.018449,769.07568 C900.93122,775.974767 913.319115,776.379163 921.822753,756.365639 C930.32639,736.352116 949.695516,749.859579 949.695516,749.859579 C949.695516,749.859579 956.510488,757.04288 965.820969,754.419993" id="Path-184"></path>
                        <path d="M1001.39868,889.819447 C1001.39868,889.819447 1017.25681,909.902806 1028.53306,912.152155 C1039.8093,914.401504 1053.6707,909.768007 1043.35452,894.600735 C1033.03834,879.433462 1027.33502,865.848043 1043.1687,859.900666 C1059.00239,853.953289 1076.74316,881.27192 1076.74316,881.27192" id="Path-185"></path>
                        <polyline id="Path-186" points="1117.16192 911.71203 1129.35422 862.866234 1145.67201 913.539118 1197.18283 880.251998"></polyline>
                        <path d="M1152.26693,835.674282 L1160.16911,824.22615 C1160.16911,824.22615 1166.30274,817.718466 1174.30761,825.207094 C1182.31247,832.695721 1192.83729,845.821527 1206.20155,848.657168 C1219.5658,851.49281 1235.55434,853.927304 1232.94147,832.616141 C1230.3286,811.304979 1229.29845,806.211867 1229.29845,806.211867" id="Path-187"></path>
                        <path d="M1244.3041,862.87273 L1208.74921,915.775475" id="Path-188"></path>
                        <polyline id="Path-189" points="1257.63087 886.447859 1285.51015 920.966031 1310.41634 890.360265 1333.0161 914.651612"></polyline>
                        <path d="M1286.4751,859.398826 C1286.4751,859.398826 1282.75384,851.164746 1287.73508,840.795002 C1292.71632,830.425259 1289.47428,818.769245 1271.07988,814.621348 C1252.68549,810.47345 1255.01637,798.888896 1257.84766,788.665319 C1260.67894,778.441743 1259.84276,773.762772 1258.84521,770.180054" id="Path-190"></path>
                        <path d="M1098.35025,732.002832 C1098.35025,732.002832 1117.34937,716.452277 1164.91237,761.926485" id="Path-192"></path>
                        <path d="M1188.56836,777.0629 C1188.56836,777.0629 1267.54933,747.647584 1189.07039,683.256106" id="Path-193"></path>
                        <path d="M1150.30443,694.590552 L1196.03532,649.090359" id="Path-194"></path>
                        <path d="M1223.04256,631.15728 L1275.83455,631.590909" id="Path-195"></path>
                        <polyline id="Path-196" points="1254.14922 715.685712 1266.58764 669.079521 1284.08228 717.478695 1334.98186 684.566737"></polyline>
                        <polyline id="Path-197" points="1149.35252 624.444962 1158.10554 580.013413 1199.95544 557.355889"></polyline>
                        <path d="M1147.19116,540.16339 C1147.19116,540.16339 1095.06583,619.043276 1053.3936,542.325039" id="Path-198"></path>
                        <path d="M1280.89566,546.940671 C1280.89566,546.940671 1373.25393,576.057157 1310.54348,635.737182" id="Path-199"></path>
                        <polyline id="Path-200" points="379.201688 349.083865 387.876451 291.59682 460.884263 297.187067"></polyline>
                        <polyline id="Path-201" points="473.137297 311.238227 512.851476 296.326604 490.544149 353.677301 542.85347 324.33864"></polyline>
                        <path d="M433.78002,335.18932 C433.78002,335.18932 451.133245,354.755183 405.819582,401.371281" id="Path-202"></path>
                        <path d="M373.121402,405.148474 C373.121402,405.148474 408.778358,482.055822 467.332547,405.686494" id="Path-203"></path>
                    </g>
                </g>
            </g>
        </g>
    </g>
</svg>